<?xml version="1.0" standalone="no"?>
<!DOCTYPE svg PUBLIC "-//W3C//DTD SVG 20010904//EN"
 "http://www.w3.org/TR/2001/REC-SVG-20010904/DTD/svg10.dtd">
<svg version="1.0" xmlns="http://www.w3.org/2000/svg"
 width="5000.000000pt" height="5000.000000pt" viewBox="0 0 5000.000000 5000.000000"
 preserveAspectRatio="xMidYMid meet">
<metadata>
Created by potrace 1.11, written by Peter Selinger 2001-2013
</metadata>
<g transform="translate(0.000000,5000.000000) scale(0.100000,-0.100000)"
fill="#000000" stroke="none">
<path d="M24917 47494 c-1 -1 -84 -5 -184 -8 -101 -4 -188 -8 -195 -11 -7 -2
-51 -6 -98 -9 -47 -3 -96 -8 -110 -10 -14 -3 -50 -7 -81 -11 -31 -3 -66 -7
-76 -9 -11 -3 -44 -7 -74 -11 -30 -4 -88 -13 -129 -21 -41 -7 -88 -16 -105
-19 -142 -26 -390 -85 -550 -132 -187 -54 -502 -161 -570 -193 -11 -5 -63 -27
-115 -48 -210 -87 -523 -240 -670 -327 -30 -18 -75 -44 -100 -57 -25 -14 -61
-34 -80 -45 -85 -49 -300 -173 -328 -190 -17 -10 -113 -65 -213 -123 -100 -58
-203 -117 -228 -132 -25 -15 -53 -31 -61 -35 -8 -4 -37 -20 -65 -36 -62 -37
-107 -62 -165 -95 -25 -13 -49 -28 -55 -32 -5 -5 -37 -23 -70 -40 -33 -18 -67
-38 -75 -45 -8 -7 -19 -14 -25 -16 -10 -4 -217 -122 -245 -139 -18 -12 -314
-182 -380 -218 -25 -14 -61 -35 -80 -47 -19 -12 -55 -33 -80 -47 -25 -14 -90
-51 -145 -83 -55 -32 -116 -67 -135 -78 -19 -11 -136 -78 -260 -150 -124 -72
-245 -141 -270 -155 -25 -13 -49 -27 -55 -32 -5 -4 -30 -19 -55 -32 -25 -14
-73 -42 -107 -62 -34 -20 -66 -36 -72 -36 -6 0 -11 -4 -11 -10 0 -5 -4 -10
-10 -10 -5 0 -33 -14 -62 -32 -48 -28 -122 -71 -205 -119 -184 -105 -454 -261
-518 -299 -44 -26 -100 -59 -125 -72 -25 -14 -105 -60 -179 -103 -74 -42 -149
-85 -165 -95 -17 -9 -74 -42 -126 -72 -52 -30 -169 -98 -260 -150 -91 -53
-181 -105 -200 -117 -19 -11 -42 -24 -50 -28 -8 -4 -55 -31 -104 -60 -49 -29
-90 -53 -91 -53 -2 0 -43 -23 -92 -51 -48 -29 -107 -62 -131 -76 -23 -13 -93
-54 -155 -90 -62 -36 -132 -77 -157 -90 -25 -14 -85 -49 -135 -78 -89 -52
-517 -299 -585 -337 -19 -11 -75 -44 -125 -73 -49 -29 -110 -63 -135 -77 -82
-47 -554 -319 -600 -347 -25 -15 -52 -30 -60 -34 -8 -4 -31 -17 -50 -28 -19
-12 -204 -118 -410 -236 -206 -119 -387 -224 -402 -234 -15 -11 -29 -19 -32
-19 -3 0 -43 -22 -88 -49 -46 -27 -100 -58 -120 -70 -21 -11 -124 -71 -230
-132 -106 -61 -209 -121 -228 -131 -19 -11 -183 -106 -365 -211 -181 -104
-350 -201 -375 -215 -25 -14 -56 -32 -70 -42 -14 -9 -92 -54 -173 -101 -82
-46 -165 -93 -185 -105 -183 -105 -403 -232 -527 -304 -82 -48 -170 -98 -195
-112 -25 -14 -112 -64 -193 -112 -82 -47 -151 -86 -153 -86 -2 0 -23 -11 -45
-26 -22 -14 -55 -33 -72 -43 -18 -10 -151 -87 -296 -171 -146 -84 -280 -161
-297 -171 -18 -10 -51 -29 -73 -43 -22 -15 -43 -26 -46 -26 -3 0 -31 -16 -61
-35 -30 -19 -56 -35 -59 -35 -2 0 -70 -39 -152 -86 -179 -105 -205 -120 -263
-152 -44 -24 -291 -167 -420 -242 -75 -44 -368 -213 -420 -242 -852 -487
-1015 -591 -1385 -892 -88 -72 -182 -151 -210 -177 -206 -194 -278 -263 -349
-340 -33 -35 -84 -91 -115 -124 -130 -140 -311 -364 -439 -545 -45 -63 -85
-119 -90 -125 -13 -16 -202 -315 -202 -319 0 -2 -17 -33 -38 -67 -64 -106
-272 -506 -272 -523 0 -2 -15 -37 -34 -78 -73 -156 -187 -463 -266 -713 -54
-172 -160 -615 -184 -775 -3 -19 -8 -46 -10 -60 -2 -14 -7 -47 -11 -73 -4 -27
-8 -56 -10 -65 -1 -10 -6 -46 -10 -82 -4 -36 -9 -72 -10 -81 -2 -9 -6 -52 -10
-95 -4 -43 -9 -95 -10 -114 -16 -166 -19 -1372 -19 -8585 0 -7188 3 -8472 19
-8595 1 -14 6 -66 10 -114 4 -49 8 -97 10 -107 2 -10 7 -46 10 -81 14 -139 92
-566 126 -693 6 -22 13 -51 16 -65 17 -96 126 -445 206 -660 97 -264 271 -640
397 -860 23 -41 51 -91 62 -110 91 -160 400 -616 448 -660 3 -3 21 -25 40 -50
110 -142 191 -234 375 -428 122 -128 133 -140 249 -247 153 -141 144 -133 331
-284 191 -154 381 -290 608 -435 50 -33 264 -158 397 -234 25 -14 78 -45 118
-69 41 -24 76 -43 79 -43 3 0 17 -8 31 -18 15 -11 52 -33 82 -49 30 -17 244
-139 475 -273 378 -218 472 -272 527 -305 9 -5 34 -20 55 -31 21 -12 153 -88
293 -169 140 -81 314 -181 385 -222 72 -41 137 -79 145 -84 23 -14 352 -203
425 -244 22 -13 123 -71 225 -130 102 -59 210 -121 240 -138 30 -17 83 -48
118 -69 34 -21 64 -38 66 -38 4 0 180 -101 226 -129 8 -5 60 -35 115 -67 55
-31 197 -113 315 -182 247 -143 269 -156 330 -190 25 -14 109 -63 188 -108 79
-46 147 -84 152 -84 6 0 10 -4 10 -10 0 -5 4 -10 10 -10 5 0 76 -39 157 -86
139 -81 178 -104 263 -152 19 -11 197 -113 395 -227 198 -114 376 -217 395
-227 19 -11 40 -24 45 -28 6 -4 33 -20 60 -35 28 -15 154 -87 280 -160 127
-73 246 -142 265 -152 19 -11 123 -71 230 -133 107 -63 224 -130 260 -150 36
-20 163 -93 283 -163 120 -70 220 -127 223 -127 3 0 25 -13 49 -30 24 -16 46
-30 49 -30 4 0 36 -18 72 -40 36 -22 67 -40 69 -40 1 0 54 -30 116 -67 63 -36
128 -74 144 -83 42 -22 171 -97 225 -130 25 -15 65 -39 90 -52 136 -75 425
-244 428 -250 2 -5 8 -8 13 -8 4 0 95 -50 201 -111 106 -62 267 -154 358 -207
91 -52 206 -118 255 -147 50 -29 110 -63 135 -77 25 -14 86 -49 135 -78 50
-29 106 -62 125 -72 19 -11 166 -96 327 -189 160 -92 309 -179 331 -191 169
-97 611 -352 627 -361 62 -37 95 -56 135 -79 104 -58 129 -73 215 -123 50 -29
106 -61 125 -72 174 -98 781 -449 802 -464 15 -10 29 -19 32 -19 3 0 55 -29
116 -65 61 -36 130 -76 153 -88 23 -13 128 -73 232 -134 105 -60 235 -136 290
-167 55 -32 107 -62 115 -67 40 -24 456 -262 530 -303 497 -273 1048 -486
1614 -622 60 -14 119 -28 130 -30 12 -2 44 -8 71 -14 67 -14 89 -18 160 -31
33 -5 71 -12 85 -15 14 -3 39 -6 55 -8 17 -2 82 -11 145 -20 63 -9 145 -18
182 -21 37 -3 75 -8 86 -10 133 -25 946 -25 1127 1 17 2 53 6 80 9 48 4 123
13 175 20 23 3 62 9 145 21 17 2 66 11 110 19 44 8 96 17 115 20 19 3 53 10
75 15 22 5 56 12 75 15 43 7 284 68 401 100 273 77 613 201 864 315 33 15 83
37 110 50 109 49 389 194 457 237 21 13 40 23 42 23 3 0 46 25 96 55 50 30 93
55 96 55 3 0 30 16 60 35 30 19 56 35 58 35 2 0 81 45 176 100 95 55 175 100
177 100 3 0 17 8 31 19 15 10 45 29 67 41 104 58 917 527 973 561 35 22 65 39
68 39 3 0 58 31 122 69 64 38 221 128 347 201 127 73 363 209 525 303 162 93
385 221 495 285 110 63 227 130 260 150 33 19 76 43 95 54 50 29 338 195 525
303 88 51 176 102 195 112 53 30 424 244 598 345 85 49 258 149 385 223 128
73 378 217 557 321 179 103 352 203 385 221 33 19 76 43 95 55 112 66 881 508
945 543 28 15 57 34 66 41 8 8 18 14 22 14 3 0 30 14 59 31 29 18 69 41 88 52
19 10 124 71 233 134 110 63 215 124 235 135 21 11 89 51 152 88 63 37 228
131 365 210 138 78 262 151 277 161 15 11 29 19 32 19 4 0 207 115 246 139 8
6 157 91 330 191 173 100 322 186 330 191 8 4 46 26 84 49 37 22 69 40 71 40
3 0 194 110 225 130 8 5 58 33 110 63 133 76 124 71 545 314 635 367 1638 945
1675 966 19 10 40 23 45 27 6 4 35 21 65 37 30 17 141 80 245 140 105 61 297
172 428 247 131 76 252 145 267 154 16 9 89 51 162 93 458 263 626 365 796
486 48 34 92 65 97 70 6 4 37 28 70 53 308 229 594 494 920 851 55 60 167 196
250 304 39 50 73 95 78 100 34 43 181 258 261 382 90 140 229 390 321 578 85
175 185 395 185 410 0 3 8 25 19 48 101 225 284 841 326 1101 3 17 12 65 20
106 16 82 41 243 50 330 4 30 9 66 11 80 4 25 10 82 19 190 3 30 8 116 12 190
9 175 9 16705 0 16870 -9 149 -16 235 -38 420 -49 426 -148 861 -292 1285 -51
151 -130 356 -178 462 -131 292 -224 474 -363 708 -62 106 -212 338 -237 369
-5 6 -41 56 -81 111 -108 149 -260 338 -383 474 -77 85 -381 388 -475 474 -52
47 -158 136 -235 197 -77 62 -149 119 -160 129 -11 9 -56 41 -100 71 -44 30
-84 59 -90 63 -108 85 -376 249 -763 469 -20 11 -50 29 -67 39 -16 11 -43 26
-60 34 -16 9 -43 24 -60 34 -37 22 -195 115 -250 145 -22 13 -128 74 -235 136
-107 62 -253 146 -325 187 -71 41 -137 79 -145 84 -19 11 -478 276 -540 311
-25 14 -117 67 -205 118 -88 51 -176 102 -195 113 -19 11 -183 105 -365 210
-335 194 -894 515 -952 548 -17 10 -50 29 -72 43 -22 15 -43 26 -45 26 -2 0
-77 43 -167 95 -89 52 -163 95 -165 95 -2 0 -36 20 -76 44 -40 24 -296 172
-569 329 -273 157 -511 295 -530 306 -19 12 -41 24 -49 28 -8 4 -96 54 -195
111 -99 58 -193 112 -210 122 -16 9 -106 61 -200 115 -93 54 -188 108 -210
120 -22 12 -71 41 -109 64 -37 22 -69 41 -71 41 -1 0 -80 45 -174 100 -95 55
-176 100 -181 100 -6 0 -10 5 -10 10 0 6 -4 10 -9 10 -6 0 -117 62 -248 138
-131 76 -245 141 -253 145 -8 4 -31 17 -51 30 -21 12 -176 102 -345 200 -170
98 -316 183 -324 188 -13 7 -117 67 -300 171 -19 11 -123 71 -230 133 -107 62
-211 122 -230 132 -19 11 -195 112 -390 225 -195 113 -427 246 -515 297 -88
50 -167 96 -175 101 -8 5 -42 24 -75 43 -107 61 -129 74 -185 107 -30 18 -71
42 -90 52 -19 10 -44 24 -55 31 -41 26 -93 55 -160 92 -38 21 -77 44 -86 51
-8 8 -18 14 -21 14 -3 0 -110 61 -238 135 -128 74 -235 135 -236 135 -2 0 -48
27 -102 60 -55 33 -105 60 -111 60 -6 0 -11 5 -11 10 0 6 -4 10 -9 10 -5 0
-108 57 -228 127 -120 69 -236 136 -258 148 -22 12 -121 69 -220 127 -99 57
-202 117 -230 132 -27 15 -151 87 -275 159 -375 217 -463 267 -472 267 -4 0
-8 5 -8 10 0 6 -5 10 -11 10 -6 0 -45 20 -87 45 -104 61 -77 46 -356 207 -136
79 -267 154 -290 167 -22 13 -54 32 -71 41 -65 37 -211 122 -225 131 -8 5
-106 61 -217 124 -222 125 -476 253 -653 329 -63 27 -134 58 -157 68 -166 72
-591 211 -804 263 -35 9 -71 17 -79 20 -19 4 -206 45 -234 51 -37 7 -140 26
-161 29 -11 2 -54 9 -95 15 -41 7 -83 14 -92 15 -9 2 -45 6 -80 10 -35 3 -74
8 -88 10 -22 3 -96 11 -200 20 -90 8 -557 24 -563 19z m238 -4009 c144 -8 209
-19 379 -61 233 -59 462 -163 816 -374 34 -20 407 -236 425 -246 11 -6 108
-62 215 -124 107 -62 215 -124 240 -138 25 -13 50 -28 55 -32 6 -4 30 -19 55
-32 25 -14 101 -58 170 -98 69 -39 143 -82 165 -95 22 -12 56 -32 75 -43 19
-11 51 -29 70 -40 19 -11 134 -77 255 -147 121 -71 249 -145 285 -165 136 -76
738 -424 808 -466 40 -24 75 -44 77 -44 3 0 24 -11 46 -26 22 -14 57 -34 77
-46 20 -11 109 -62 197 -113 88 -50 180 -103 205 -117 25 -14 113 -65 195
-113 83 -48 168 -97 190 -110 41 -23 62 -35 660 -380 321 -185 405 -234 527
-304 18 -10 89 -51 158 -91 69 -40 150 -86 180 -103 30 -16 67 -38 82 -49 14
-10 28 -18 31 -18 4 0 122 -66 177 -100 29 -17 494 -285 544 -313 28 -16 72
-42 99 -58 26 -16 50 -29 54 -29 3 0 14 -6 22 -14 14 -12 50 -33 161 -93 14
-8 39 -23 57 -33 18 -11 209 -121 425 -246 216 -124 481 -277 588 -339 232
-134 701 -405 750 -433 85 -48 167 -96 195 -113 17 -10 37 -22 45 -26 8 -4 48
-26 88 -50 41 -24 75 -43 78 -43 2 0 33 -18 69 -40 36 -22 68 -40 71 -40 2 0
17 -9 32 -19 23 -16 593 -346 727 -421 25 -14 111 -63 192 -110 135 -78 171
-99 273 -157 19 -11 58 -34 86 -51 28 -18 56 -32 63 -32 6 0 11 -4 11 -10 0
-5 4 -10 9 -10 5 0 49 -23 98 -51 48 -28 104 -60 123 -71 19 -11 64 -37 100
-58 63 -37 91 -52 195 -112 28 -16 57 -33 65 -38 37 -23 293 -170 296 -170 3
0 21 -11 42 -23 20 -13 57 -35 82 -49 117 -65 215 -124 218 -130 2 -5 8 -8 14
-8 5 0 67 -33 137 -74 69 -40 218 -127 331 -192 113 -64 302 -174 420 -242
118 -69 231 -134 250 -145 19 -10 64 -36 100 -57 36 -21 81 -47 100 -57 78
-44 230 -132 268 -157 23 -14 44 -26 46 -26 2 0 113 -63 247 -141 133 -77 261
-150 283 -163 253 -141 416 -246 531 -340 356 -292 611 -691 726 -1140 12 -44
23 -90 24 -101 2 -11 11 -60 20 -110 8 -49 18 -137 22 -195 9 -138 9 -16469 0
-16580 -9 -104 -33 -245 -62 -370 -24 -101 -100 -308 -149 -408 -20 -40 -36
-75 -36 -77 0 -14 -137 -233 -191 -305 -150 -203 -365 -405 -564 -530 -52 -33
-98 -60 -103 -60 -4 0 -13 -5 -20 -12 -7 -7 -37 -26 -66 -43 -47 -26 -155 -88
-336 -192 -25 -14 -135 -77 -245 -141 -110 -64 -236 -136 -280 -161 -44 -25
-88 -50 -97 -56 -10 -5 -84 -48 -165 -95 -81 -47 -167 -97 -192 -111 -25 -14
-143 -82 -261 -151 -118 -68 -260 -150 -315 -182 -55 -31 -107 -61 -115 -66
-53 -31 -626 -361 -695 -400 -17 -9 -87 -50 -155 -90 -69 -40 -145 -84 -170
-98 -25 -14 -144 -82 -265 -152 -121 -70 -236 -137 -255 -148 -33 -18 -179
-102 -585 -337 -188 -108 -219 -126 -285 -163 -25 -13 -49 -28 -55 -32 -5 -4
-30 -19 -55 -32 -25 -14 -85 -49 -135 -78 -102 -60 -136 -79 -220 -127 -33
-19 -67 -38 -75 -43 -14 -9 -267 -155 -348 -202 -90 -51 -176 -100 -267 -153
-55 -32 -120 -69 -144 -83 -24 -13 -104 -60 -178 -103 -75 -43 -136 -79 -138
-79 -2 0 -65 -37 -141 -81 -77 -45 -157 -92 -179 -104 -41 -22 -456 -261 -600
-345 -44 -26 -127 -74 -185 -107 -58 -33 -150 -87 -205 -119 -55 -33 -104 -61
-110 -63 -5 -2 -46 -25 -90 -51 -44 -26 -172 -101 -285 -165 -113 -65 -290
-167 -395 -228 -104 -60 -211 -121 -236 -136 -51 -29 -392 -226 -442 -255 -18
-10 -126 -72 -242 -139 -115 -66 -243 -140 -282 -164 -40 -23 -75 -43 -77 -43
-3 0 -45 -24 -93 -53 -48 -29 -119 -71 -158 -92 -38 -22 -78 -44 -87 -50 -9
-5 -41 -23 -70 -39 -29 -15 -60 -34 -69 -42 -8 -8 -18 -14 -21 -14 -4 0 -72
-38 -153 -85 -80 -47 -165 -96 -188 -109 -23 -13 -98 -56 -167 -96 -69 -40
-140 -81 -159 -92 -18 -10 -241 -139 -495 -285 -253 -146 -477 -275 -496 -286
-102 -57 -126 -71 -140 -83 -8 -7 -19 -14 -25 -15 -5 -1 -19 -7 -30 -14 -11
-7 -171 -99 -355 -205 -404 -233 -353 -203 -590 -340 -107 -62 -210 -121 -228
-132 -18 -10 -93 -53 -165 -95 -73 -42 -151 -86 -174 -99 -23 -13 -92 -53
-153 -89 -61 -36 -113 -65 -115 -65 -2 0 -24 -13 -48 -30 -25 -16 -48 -30 -51
-30 -4 0 -39 -20 -79 -44 -96 -58 -280 -158 -342 -185 -171 -76 -394 -148
-552 -177 -13 -2 -35 -6 -50 -9 -16 -3 -48 -7 -73 -10 -25 -3 -76 -10 -115
-14 -71 -9 -409 -7 -455 2 -14 3 -47 8 -75 11 -64 8 -99 14 -155 26 -25 6 -55
12 -68 15 -29 5 -34 7 -147 40 -179 54 -362 136 -570 254 -22 13 -44 27 -50
31 -5 4 -35 21 -65 37 -30 17 -98 55 -150 85 -52 30 -187 108 -300 173 -113
65 -268 155 -345 200 -77 44 -147 84 -155 88 -8 4 -31 17 -50 28 -19 12 -141
82 -270 157 -129 74 -318 184 -420 243 -187 108 -245 141 -290 166 -14 8 -41
23 -60 35 -19 11 -53 31 -75 43 -22 13 -139 80 -260 150 -121 70 -240 139
-265 153 -25 14 -62 36 -82 49 -21 12 -39 23 -42 23 -3 0 -99 55 -156 90 -8 5
-42 25 -75 43 -33 19 -148 85 -255 147 -257 148 -254 147 -297 171 -21 12
-110 63 -198 114 -88 51 -177 102 -197 114 -21 11 -53 29 -70 40 -183 105
-430 248 -457 263 -19 11 -210 121 -425 245 -215 124 -404 234 -421 243 -80
46 -1014 585 -1040 601 -16 10 -46 26 -65 37 -19 11 -181 104 -360 207 -179
103 -345 199 -370 213 -25 14 -57 33 -72 43 -14 11 -29 19 -33 19 -8 0 -185
102 -227 131 -15 11 -29 19 -32 19 -2 0 -70 38 -151 85 -80 47 -165 96 -188
109 -23 13 -172 99 -332 191 -159 92 -306 176 -325 187 -19 11 -48 27 -65 37
-62 37 -255 148 -332 192 -21 12 -110 63 -198 114 -88 51 -177 102 -198 114
-21 12 -107 61 -190 110 -84 48 -350 202 -592 341 -427 245 -644 371 -675 390
-8 5 -37 21 -65 36 -27 14 -57 32 -66 40 -8 8 -18 14 -22 14 -3 0 -82 44 -175
98 -93 54 -175 102 -183 105 -8 4 -30 17 -49 28 -48 29 -816 472 -865 499 -22
12 -44 26 -50 30 -5 4 -30 19 -55 32 -25 14 -133 76 -240 138 -107 62 -213
123 -235 135 -22 13 -123 71 -225 131 -102 59 -201 116 -220 126 -19 10 -48
27 -65 37 -16 10 -50 29 -75 43 -57 32 -150 86 -170 98 -8 5 -103 59 -210 121
-305 175 -454 283 -612 445 -127 130 -175 189 -265 324 -142 213 -263 499
-309 730 -3 14 -9 44 -14 67 -5 22 -13 65 -16 95 -3 29 -8 56 -10 59 -1 3 -6
55 -10 115 -10 142 -10 16417 -1 16549 19 260 77 496 184 748 49 116 190 365
243 430 5 7 31 39 57 72 78 100 239 263 333 336 30 24 57 46 60 49 16 17 88
65 180 119 58 34 112 66 120 71 31 19 107 63 150 88 25 14 146 84 270 155 124
72 239 138 255 147 28 16 524 302 590 340 17 10 71 41 120 69 50 28 97 56 105
61 8 6 26 16 40 22 14 7 48 27 77 45 29 18 54 33 56 33 3 0 34 17 68 38 35 22
84 50 109 64 53 30 619 356 670 387 19 11 60 34 90 51 30 16 73 41 95 54 22
13 81 47 130 75 50 28 97 55 105 60 12 8 240 140 414 240 23 13 174 100 336
194 162 93 315 181 340 195 25 14 105 61 179 104 74 43 135 78 137 78 1 0 48
27 103 60 56 33 104 60 106 60 3 0 24 12 48 27 23 15 56 35 74 45 17 9 150 85
294 169 145 83 277 159 293 169 17 9 59 34 93 54 34 20 66 36 71 36 6 0 12 4
14 8 2 5 59 40 128 79 69 39 197 113 285 164 88 51 178 102 200 114 22 13 180
103 350 202 171 99 372 215 448 259 76 43 150 86 165 95 15 9 135 78 267 154
132 76 294 170 360 208 66 38 140 81 165 95 25 14 160 91 300 172 140 81 274
158 297 171 23 13 172 99 330 190 311 180 875 506 1363 787 528 304 943 544
990 571 25 14 112 64 193 111 81 47 162 93 180 104 129 74 1550 894 1582 912
22 12 118 67 214 123 95 56 175 101 177 101 3 0 21 11 42 24 45 28 625 361
703 403 166 90 497 199 664 219 22 3 47 7 54 10 8 3 78 8 155 11 78 3 143 7
144 9 2 1 9 1 15 -1 7 -2 57 -6 112 -10z"/>
<path d="M24787 35423 c-1 -1 -90 -4 -197 -8 -107 -4 -215 -8 -240 -10 -106
-5 -443 -33 -490 -40 -14 -2 -52 -7 -85 -10 -103 -11 -129 -14 -175 -20 -25
-3 -61 -8 -80 -11 -19 -2 -48 -6 -65 -9 -16 -3 -48 -7 -70 -10 -80 -11 -262
-40 -365 -59 -57 -10 -368 -77 -400 -86 -19 -5 -116 -30 -215 -56 -99 -25
-218 -57 -265 -71 -47 -14 -98 -29 -115 -33 -242 -66 -834 -278 -1062 -381
-23 -10 -44 -19 -48 -19 -30 0 -677 -312 -883 -426 -73 -41 -134 -74 -136 -74
-6 0 -397 -233 -457 -272 -30 -20 -107 -69 -171 -111 -208 -135 -651 -457
-770 -559 -15 -13 -55 -45 -90 -73 -55 -44 -264 -220 -278 -235 -3 -3 -25 -23
-50 -44 -104 -90 -296 -272 -450 -426 -224 -225 -337 -347 -607 -660 -11 -14
-73 -90 -137 -170 -64 -80 -122 -152 -129 -160 -6 -8 -20 -27 -29 -41 -9 -14
-23 -32 -30 -40 -15 -15 -161 -215 -254 -349 -82 -117 -260 -389 -315 -481
-125 -210 -194 -328 -225 -387 -20 -37 -54 -98 -76 -137 -36 -66 -252 -499
-296 -595 -80 -175 -87 -192 -188 -437 -113 -278 -241 -646 -333 -958 -56
-189 -128 -454 -137 -502 -13 -70 -12 -70 -131 -67 -59 1 -241 5 -403 9 -162
3 -387 8 -500 10 -208 5 -438 10 -945 21 -154 3 -304 6 -332 7 -58 2 -59 2
-40 -17 31 -33 338 -355 367 -386 18 -19 99 -105 180 -190 81 -85 169 -178
196 -207 27 -28 119 -124 204 -213 85 -90 171 -179 190 -200 108 -115 333
-351 380 -400 71 -73 345 -361 400 -420 23 -25 117 -124 209 -219 91 -96 204
-215 251 -264 47 -50 101 -106 120 -127 104 -109 327 -344 382 -401 35 -36
126 -133 203 -214 77 -81 160 -168 185 -194 25 -26 117 -123 205 -215 88 -93
183 -192 210 -221 28 -29 83 -87 123 -129 40 -43 77 -76 82 -74 4 2 79 71 165
153 87 83 178 170 204 194 25 24 119 113 207 197 89 85 187 178 217 207 220
208 349 331 393 373 48 46 312 297 413 392 25 24 123 117 216 206 94 90 188
180 210 200 58 55 320 304 374 356 43 41 305 291 427 406 216 205 384 365 420
399 53 51 379 362 414 395 15 14 102 97 195 185 92 88 183 174 201 191 19 17
34 32 34 35 0 2 -51 5 -113 6 -61 1 -231 4 -377 8 -446 10 -623 14 -920 20
-157 4 -352 8 -435 10 -82 2 -205 5 -272 6 -68 1 -123 5 -123 9 0 24 138 386
215 565 52 121 246 518 295 604 17 30 41 73 53 95 13 23 30 52 38 66 9 14 61
97 115 185 109 177 228 352 327 480 4 5 37 48 73 95 80 104 116 150 129 164 6
6 30 36 55 66 134 163 372 415 566 600 426 404 878 738 1400 1035 133 76 488
255 604 305 41 18 98 42 125 55 28 12 106 43 175 70 69 26 139 53 155 60 17 7
89 32 160 55 72 24 160 53 198 66 37 13 67 22 67 19 0 -2 19 3 43 11 75 27
493 128 617 150 14 2 48 9 75 14 28 5 66 11 85 14 70 10 116 17 170 26 52 8
79 12 198 25 26 3 61 8 77 10 17 2 66 6 110 10 44 3 103 8 130 10 465 36 1042
17 1505 -50 176 -25 178 -26 360 -60 74 -14 172 -34 217 -45 46 -11 93 -21
105 -24 123 -23 577 -162 763 -233 165 -63 220 -85 253 -99 17 -8 47 -20 65
-28 149 -64 205 -90 371 -173 205 -102 237 -119 419 -225 114 -66 207 -124
301 -187 21 -14 46 -30 55 -36 9 -5 29 -18 44 -29 24 -16 31 -16 42 -5 7 8 87
125 178 260 90 135 272 405 402 600 131 195 289 428 350 519 61 91 223 332
360 535 137 204 313 466 392 582 79 117 146 219 148 226 6 13 -51 53 -250 172
-455 273 -978 537 -1455 735 -96 39 -204 83 -240 97 -36 14 -78 31 -95 38
-110 46 -564 198 -790 264 -113 33 -217 62 -234 66 -9 2 -68 17 -131 34 -106
28 -401 97 -460 107 -14 3 -79 16 -145 29 -66 13 -149 29 -185 35 -36 6 -76
13 -90 16 -14 2 -45 7 -70 10 -25 3 -47 8 -50 9 -3 2 -33 7 -65 10 -33 4 -68
9 -79 11 -10 2 -44 6 -75 10 -31 3 -58 8 -61 9 -3 2 -41 6 -85 10 -44 3 -87 8
-95 10 -16 4 -72 10 -190 20 -41 4 -86 8 -100 10 -14 2 -72 7 -130 10 -58 4
-122 8 -143 10 -95 9 -833 25 -840 18z"/>
<path d="M33564 26604 c-21 -20 -71 -66 -109 -103 -39 -36 -133 -124 -210
-196 -76 -71 -155 -146 -176 -165 -20 -19 -94 -89 -165 -155 -71 -66 -162
-151 -202 -190 -41 -38 -91 -86 -112 -105 -21 -19 -90 -84 -154 -145 -65 -60
-134 -126 -155 -145 -21 -19 -100 -93 -176 -165 -76 -71 -149 -141 -164 -154
-14 -13 -84 -79 -156 -147 -71 -67 -148 -139 -170 -159 -22 -21 -76 -72 -120
-113 -44 -42 -114 -107 -155 -146 -42 -39 -139 -130 -215 -202 -77 -73 -156
-146 -175 -164 -40 -37 -261 -245 -325 -305 -68 -65 -290 -273 -321 -302 -16
-14 -96 -89 -179 -167 -82 -77 -183 -172 -224 -211 -80 -75 -186 -174 -316
-298 l-80 -75 155 -2 c85 -1 205 -3 265 -5 130 -3 628 -15 875 -20 592 -13
775 -17 858 -18 50 -1 92 -5 92 -9 0 -4 -18 -58 -39 -120 -217 -625 -560
-1272 -971 -1833 -88 -120 -126 -170 -203 -265 -37 -45 -172 -206 -181 -216
-6 -6 -38 -42 -71 -79 -79 -90 -442 -454 -530 -530 -38 -33 -79 -69 -91 -80
-114 -101 -269 -226 -394 -318 -52 -39 -97 -73 -100 -76 -8 -10 -379 -261
-386 -261 -1 0 -45 -26 -96 -58 -277 -172 -590 -333 -930 -478 -69 -30 -129
-54 -132 -54 -4 0 -25 -9 -49 -19 -66 -30 -119 -48 -322 -116 -412 -137 -675
-203 -1120 -280 -16 -2 -66 -9 -110 -15 -44 -6 -91 -13 -105 -16 -14 -2 -50
-6 -80 -9 -30 -3 -68 -8 -85 -10 -32 -4 -119 -12 -220 -20 -237 -19 -643 -25
-910 -12 -162 8 -201 11 -310 22 -33 3 -85 8 -115 11 -30 3 -71 7 -90 10 -19
3 -66 9 -105 14 -38 6 -88 13 -110 16 -233 31 -676 131 -950 215 -662 203
-1261 484 -1834 862 -57 38 -107 65 -111 60 -4 -4 -87 -127 -185 -273 -98
-146 -242 -359 -320 -475 -355 -526 -571 -848 -585 -870 -8 -14 -87 -131 -176
-262 -303 -447 -574 -852 -574 -856 0 -5 138 -97 145 -97 3 0 11 -5 18 -10 41
-35 394 -245 627 -373 134 -74 652 -337 663 -337 3 0 53 -22 111 -50 58 -27
109 -50 112 -50 3 0 29 -11 57 -24 62 -29 392 -166 400 -166 3 0 18 -5 34 -12
15 -6 30 -12 33 -13 20 -5 60 -19 85 -30 95 -42 581 -202 695 -230 8 -2 44
-13 80 -24 72 -22 512 -134 575 -146 22 -5 45 -9 50 -10 90 -20 208 -45 235
-50 42 -7 247 -44 275 -49 27 -5 92 -15 135 -21 19 -2 100 -14 180 -25 80 -11
168 -22 195 -24 28 -2 73 -7 100 -10 79 -9 144 -15 225 -21 41 -3 98 -8 125
-10 374 -32 1173 -22 1605 20 19 2 64 6 100 9 36 4 83 8 105 11 112 14 135 17
190 25 33 5 85 12 115 16 64 8 87 11 115 17 28 6 83 16 130 23 22 3 77 14 122
25 44 10 96 21 115 24 18 3 53 11 78 16 25 6 54 12 65 15 25 5 128 27 135 29
5 1 64 13 100 21 14 2 246 60 280 69 8 2 49 13 90 24 257 66 883 271 1045 340
11 5 101 42 200 82 99 40 200 81 225 92 25 11 47 21 50 22 3 0 41 18 85 39 44
20 107 49 140 64 89 40 446 221 555 282 211 117 210 116 386 222 353 212 772
502 1079 747 39 31 72 58 75 61 3 3 38 31 78 63 335 268 876 788 1173 1128
217 249 360 425 525 644 168 223 436 613 519 753 6 9 53 89 106 177 85 142
141 240 242 425 174 318 427 878 557 1230 24 63 48 129 55 145 17 39 135 394
170 510 90 301 80 266 147 530 17 66 32 122 33 123 3 4 180 3 400 -3 72 -1
297 -6 500 -10 204 -4 431 -8 505 -10 74 -2 277 -7 450 -10 173 -4 364 -8 423
-9 59 -1 110 0 112 4 2 4 -4 13 -13 21 -14 13 -172 178 -382 399 -19 20 -105
110 -190 200 -85 89 -168 177 -185 194 -16 18 -109 115 -206 217 -96 101 -207
218 -246 259 -39 41 -102 107 -140 146 -37 40 -133 141 -213 225 -80 84 -163
171 -185 194 -225 237 -346 364 -375 395 -34 37 -262 275 -471 494 -58 61
-133 140 -167 176 -33 36 -91 97 -129 136 -59 62 -339 356 -428 449 -16 18
-97 103 -180 190 -82 86 -167 176 -189 199 -57 61 -188 196 -190 196 -1 0 -20
-16 -42 -36z"/>
</g>
</svg>
